<?xml version="1.0" encoding="UTF-8"?>
<svg id="Symbole" xmlns="http://www.w3.org/2000/svg" viewBox="0 0 32 32">
  <defs>
    <style>
      .cls-1 {
        fill: #fff;
      }
    </style>
  </defs>
  <path class="cls-1" d="m16,5.5c5.79,0,10.5,4.71,10.5,10.5s-4.71,10.5-10.5,10.5-10.5-4.71-10.5-10.5,4.71-10.5,10.5-10.5m0-2c-6.9,0-12.5,5.6-12.5,12.5s5.6,12.5,12.5,12.5,12.5-5.6,12.5-12.5S22.9,3.5,16,3.5h0Z"/>
  <polygon class="cls-1" points="13.33 3.79 14 0 18 0 18.63 3.79 13.33 3.79"/>
  <polygon class="cls-1" points="5.48 9.25 3.27 6.1 6.1 3.27 9.22 5.5 5.48 9.25"/>
  <polygon class="cls-1" points="3.79 18.67 0 18 0 14 3.79 13.37 3.79 18.67"/>
  <polygon class="cls-1" points="9.25 26.52 6.1 28.73 3.27 25.9 5.5 22.78 9.25 26.52"/>
  <polygon class="cls-1" points="18.67 28.21 18 32 14 32 13.37 28.21 18.67 28.21"/>
  <polygon class="cls-1" points="26.52 22.75 28.73 25.9 25.9 28.73 22.78 26.5 26.52 22.75"/>
  <polygon class="cls-1" points="28.21 13.33 32 14 32 18 28.21 18.63 28.21 13.33"/>
  <polygon class="cls-1" points="22.75 5.48 25.9 3.27 28.73 6.1 26.5 9.22 22.75 5.48"/>
</svg>